<svg width="28" height="28" viewBox="0 0 28 28" fill="none" xmlns="http://www.w3.org/2000/svg">
<path d="M21.35 15.4C21.35 16.366 20.566 17.15 19.6 17.15C18.634 17.15 17.85 16.366 17.85 15.4C17.85 14.434 18.634 13.65 19.6 13.65C20.566 13.65 21.35 14.434 21.35 15.4ZM28 14C28 21.7 21.7 28 14 28H0V14C0 6.3 6.3 0 14 0C21.7 0 28 6.3 28 14ZM7 22.4C8.974 24.122 11.2 25.2 14 25.2C20.174 25.2 25.2 20.174 25.2 14C25.2 12.894 25.032 11.83 24.738 10.836C23.73 11.074 22.68 11.2 21.588 11.2C18.788 11.2 16.198 10.36 14 8.946C14 8.946 11.956 16.464 8.442 15.4C7.518 15.12 7 15.834 7 16.8" fill="white"/>
</svg>
