<svg width="10" height="20" viewBox="0 0 10 20" fill="none" xmlns="http://www.w3.org/2000/svg">
<path d="M0 13.0556H2C2 14.1556 3.37 15.0926 5 15.0926C6.63 15.0926 8 14.1556 8 13.0556C8 11.9352 6.96 11.5278 4.76 10.988C2.64 10.4482 0 9.77597 0 6.94448C0 5.12134 1.47 3.57319 3.5 3.05374V0.833374H6.5V3.05374C8.53 3.57319 10 5.12134 10 6.94448H8C8 5.84448 6.63 4.90745 5 4.90745C3.37 4.90745 2 5.84448 2 6.94448C2 8.06486 3.04 8.47226 5.24 9.01208C7.36 9.55189 10 10.2241 10 13.0556C10 14.8787 8.53 16.4269 6.5 16.9463V19.1667H3.5V16.9463C1.47 16.4269 0 14.8787 0 13.0556Z" fill="#42B29C"/>
</svg>
