<svg width="20" height="14" viewBox="0 0 20 14" fill="none" xmlns="http://www.w3.org/2000/svg">
<path d="M12.5 0.333374C14.2681 0.333374 15.9638 1.03575 17.214 2.286C18.4643 3.53624 19.1667 5.23193 19.1667 7.00004C19.1667 8.76815 18.4643 10.4638 17.214 11.7141C15.9638 12.9643 14.2681 13.6667 12.5 13.6667C10.7319 13.6667 9.0362 12.9643 7.78595 11.7141C6.53571 10.4638 5.83333 8.76815 5.83333 7.00004C5.83333 5.23193 6.53571 3.53624 7.78595 2.286C9.0362 1.03575 10.7319 0.333374 12.5 0.333374ZM12.5 12C13.8261 12 15.0979 11.4733 16.0355 10.5356C16.9732 9.59789 17.5 8.32612 17.5 7.00004C17.5 5.67396 16.9732 4.40219 16.0355 3.46451C15.0979 2.52682 13.8261 2.00004 12.5 2.00004C11.1739 2.00004 9.90215 2.52682 8.96447 3.46451C8.02678 4.40219 7.5 5.67396 7.5 7.00004C7.5 8.32612 8.02678 9.59789 8.96447 10.5356C9.90215 11.4733 11.1739 12 12.5 12ZM2.5 7.00004C2.5 9.17504 3.89167 11.025 5.83333 11.7084V13.45C2.95833 12.7084 0.833334 10.1084 0.833334 7.00004C0.833334 3.89171 2.95833 1.29171 5.83333 0.550041V2.29171C3.89167 2.97504 2.5 4.82504 2.5 7.00004Z" fill="#717172"/>
</svg>
